<svg aria-hidden="true" style="position: absolute; width: 0; height: 0; overflow: hidden;" version="1.1" xmlns="http://www.w3.org/2000/svg" xmlns:xlink="http://www.w3.org/1999/xlink">
<defs>
<symbol id="icon-logo_little" viewBox="0 0 41 32">
<path fill="#9090a9" style="fill: var(--color1, #9090a9)" d="M29.431 0.044h-19.299l-10.132 10.237 19.782 19.986 19.782-19.986-10.132-10.237zM22.648 14.678v7.302h-5.732v-7.302l-6.784-6.863 3.348-3.383 6.301 6.366 6.301-6.366 3.348 3.383-6.784 6.863z"></path>
</symbol>
<symbol id="icon-user" viewBox="0 0 28 32">
<path d="M14.39 12.375c-2.313 0-4.188-1.875-4.188-4.188s1.875-4.188 4.188-4.188c2.313 0 4.188 1.875 4.188 4.188s-1.875 4.188-4.188 4.188zM14.39 15.375c3.97 0 7.188-3.218 7.188-7.188s-3.218-7.188-7.188-7.188c-3.97 0-7.188 3.218-7.188 7.188s3.218 7.188 7.188 7.188z"></path>
<path d="M9.5 19.194c1.55-0.642 3.212-0.973 4.89-0.973s3.34 0.331 4.89 0.973c1.55 0.642 2.959 1.583 4.145 2.77s2.128 2.595 2.77 4.146c0.642 1.55 0.973 3.212 0.973 4.89h-3c0-1.284-0.253-2.556-0.744-3.742v0c-0.491-1.186-1.212-2.264-2.12-3.172s-1.986-1.628-3.172-2.12c-1.186-0.491-2.458-0.744-3.742-0.744s-2.556 0.253-3.742 0.744c-1.186 0.491-2.264 1.212-3.172 2.12s-1.628 1.986-2.12 3.172-0.744 2.458-0.744 3.742h-3c0-1.678 0.331-3.34 0.973-4.89s1.583-2.959 2.77-4.146 2.595-2.128 4.146-2.77z"></path>
</symbol>
<symbol id="icon-round" viewBox="0 0 32 32">
<path fill="#e0e0ef" style="fill: var(--color2, #e0e0ef)" d="M30.172 16.223c0 7.855-6.367 14.222-14.222 14.222s-14.222-6.367-14.222-14.222c0-7.855 6.367-14.222 14.222-14.222s14.222 6.367 14.222 14.222z"></path>
</symbol>
<symbol id="icon-students" viewBox="0 0 60 32">
<path fill="#9090a9" style="fill: var(--color1, #9090a9)" d="M48.305 11.712c-1.386 0-2.51-1.124-2.51-2.51s1.124-2.51 2.51-2.51c1.386 0 2.51 1.124 2.51 2.51s-1.124 2.51-2.51 2.51zM48.305 14.712c3.043 0 5.51-2.467 5.51-5.51s-2.467-5.51-5.51-5.51c-3.043 0-5.51 2.467-5.51 5.51s2.467 5.51 5.51 5.51z"></path>
<path fill="#9090a9" style="fill: var(--color1, #9090a9)" d="M44.423 17.317c1.231-0.51 2.55-0.772 3.882-0.772s2.652 0.262 3.883 0.772c1.231 0.51 2.349 1.257 3.291 2.199s1.689 2.060 2.199 3.291c0.51 1.231 0.772 2.55 0.772 3.882h-3c0-0.938-0.185-1.868-0.544-2.734s-0.885-1.655-1.549-2.318c-0.664-0.663-1.451-1.19-2.318-1.549s-1.796-0.544-2.734-0.544c-0.938 0-1.867 0.185-2.734 0.544s-1.655 0.885-2.318 1.549l-2.121-2.121c0.942-0.942 2.061-1.689 3.291-2.199z"></path>
<path fill="#9090a9" style="fill: var(--color1, #9090a9)" d="M29.833 11.566c-2.313 0-4.187-1.875-4.187-4.188s1.875-4.188 4.187-4.188c2.313 0 4.188 1.875 4.188 4.188s-1.875 4.188-4.188 4.188zM29.833 14.566c3.97 0 7.188-3.218 7.188-7.188s-3.218-7.188-7.188-7.188c-3.97 0-7.187 3.218-7.187 7.188s3.218 7.188 7.187 7.188z"></path>
<path fill="#9090a9" style="fill: var(--color1, #9090a9)" d="M24.943 18.386c1.55-0.642 3.212-0.973 4.89-0.973s3.34 0.331 4.89 0.973c1.55 0.642 2.959 1.583 4.146 2.77s2.128 2.595 2.77 4.146c0.642 1.55 0.973 3.212 0.973 4.89h-3c0-1.284-0.253-2.556-0.744-3.742v0c-0.491-1.186-1.212-2.264-2.12-3.172s-1.986-1.628-3.172-2.12c-1.186-0.491-2.458-0.744-3.742-0.744s-2.556 0.253-3.742 0.744c-1.186 0.491-2.264 1.212-3.172 2.12s-1.628 1.986-2.12 3.172c-0.491 1.186-0.744 2.458-0.744 3.742h-3c0-1.678 0.331-3.34 0.973-4.89s1.583-2.959 2.77-4.146 2.595-2.128 4.146-2.77z"></path>
<path fill="#9090a9" style="fill: var(--color1, #9090a9)" d="M11.361 11.712c-1.386 0-2.51-1.124-2.51-2.51s1.124-2.51 2.51-2.51c1.386 0 2.51 1.124 2.51 2.51s-1.124 2.51-2.51 2.51zM11.361 14.712c3.043 0 5.51-2.467 5.51-5.51s-2.467-5.51-5.51-5.51c-3.043 0-5.51 2.467-5.51 5.51s2.467 5.51 5.51 5.51z"></path>
<path fill="#9090a9" style="fill: var(--color1, #9090a9)" d="M7.479 17.317c1.231-0.51 2.55-0.772 3.882-0.772s2.652 0.262 3.882 0.772c1.231 0.51 2.349 1.257 3.291 2.199l-2.121 2.121c-0.663-0.663-1.451-1.19-2.318-1.549s-1.796-0.544-2.734-0.544-1.867 0.185-2.734 0.544c-0.867 0.359-1.655 0.885-2.318 1.549s-1.19 1.451-1.549 2.318c-0.359 0.867-0.544 1.796-0.544 2.734h-3c0-1.332 0.262-2.652 0.772-3.882s1.257-2.349 2.199-3.291 2.061-1.689 3.291-2.199z"></path>
</symbol>
<symbol id="icon-lock" viewBox="0 0 24 32">
<path fill="#9090a9" style="fill: var(--color1, #9090a9)" d="M13.166 18.583h-2.9v6h2.9v-6z"></path>
<path fill="#9090a9" style="fill: var(--color1, #9090a9)" d="M23.307 15.583c0-0.044 0-0.089 0-0.133v-2.867h-4.351v-4.489c0-4.156-3.242-7.511-7.251-7.511s-7.251 3.356-7.251 7.511v1.511h2.922v-1.511c0-2.489 1.941-4.511 4.351-4.511s4.351 2.022 4.351 4.511v4.489h-15.952v2.867c0 0.044 0 0.089 0 0.133v12c0 0.044 0 0.089 0 0.133v2.844h2.559c0.107 0.022 0.213 0.022 0.341 0.022h17.381c0.107 0 0.235 0 0.341-0.022h2.559v-2.844c0-0.044 0-0.089 0-0.133v-12zM3.025 27.583v-12h17.381v12h-17.381z"></path>
</symbol>
</defs>
</svg>
